<mxfile host="Electron" modified="2024-02-18T04:24:15.449Z" agent="Mozilla/5.0 (Windows NT 10.0; Win64; x64) AppleWebKit/537.36 (KHTML, like Gecko) draw.io/22.1.11 Chrome/114.0.5735.289 Electron/25.9.8 Safari/537.36" etag="adkdeKrP2cBCW2W-Z0hS" version="22.1.11" type="device">
  <diagram name="페이지-1" id="iVZi0nG8SM7Xhvu1qWq1">
    <mxGraphModel dx="875" dy="537" grid="1" gridSize="10" guides="1" tooltips="1" connect="1" arrows="1" fold="1" page="1" pageScale="1" pageWidth="827" pageHeight="1169" math="0" shadow="0">
      <root>
        <mxCell id="0" />
        <mxCell id="1" parent="0" />
        <mxCell id="rmgWVKdF0Q6B7slL_YuL-1" value="" style="rounded=0;whiteSpace=wrap;html=1;" vertex="1" parent="1">
          <mxGeometry x="40" y="280" width="40" height="80" as="geometry" />
        </mxCell>
        <mxCell id="rmgWVKdF0Q6B7slL_YuL-2" value="" style="rounded=0;whiteSpace=wrap;html=1;" vertex="1" parent="1">
          <mxGeometry x="80" y="240" width="40" height="120" as="geometry" />
        </mxCell>
        <mxCell id="rmgWVKdF0Q6B7slL_YuL-3" value="" style="rounded=0;whiteSpace=wrap;html=1;" vertex="1" parent="1">
          <mxGeometry x="120" y="280" width="40" height="80" as="geometry" />
        </mxCell>
        <mxCell id="rmgWVKdF0Q6B7slL_YuL-4" value="" style="rounded=0;whiteSpace=wrap;html=1;" vertex="1" parent="1">
          <mxGeometry x="160" y="40" width="40" height="320" as="geometry" />
        </mxCell>
        <mxCell id="rmgWVKdF0Q6B7slL_YuL-5" value="" style="rounded=0;whiteSpace=wrap;html=1;" vertex="1" parent="1">
          <mxGeometry x="200" y="120" width="40" height="240" as="geometry" />
        </mxCell>
        <mxCell id="rmgWVKdF0Q6B7slL_YuL-6" value="" style="rounded=0;whiteSpace=wrap;html=1;" vertex="1" parent="1">
          <mxGeometry x="240" y="200" width="40" height="160" as="geometry" />
        </mxCell>
        <mxCell id="rmgWVKdF0Q6B7slL_YuL-7" value="" style="rounded=0;whiteSpace=wrap;html=1;" vertex="1" parent="1">
          <mxGeometry x="280" y="160" width="40" height="200" as="geometry" />
        </mxCell>
        <mxCell id="rmgWVKdF0Q6B7slL_YuL-8" value="" style="rounded=0;whiteSpace=wrap;html=1;" vertex="1" parent="1">
          <mxGeometry x="320" y="320" width="40" height="40" as="geometry" />
        </mxCell>
        <mxCell id="rmgWVKdF0Q6B7slL_YuL-9" value="" style="rounded=0;whiteSpace=wrap;html=1;" vertex="1" parent="1">
          <mxGeometry x="360" y="120" width="40" height="240" as="geometry" />
        </mxCell>
        <mxCell id="rmgWVKdF0Q6B7slL_YuL-10" value="" style="rounded=0;whiteSpace=wrap;html=1;" vertex="1" parent="1">
          <mxGeometry x="400" y="200" width="40" height="160" as="geometry" />
        </mxCell>
        <mxCell id="rmgWVKdF0Q6B7slL_YuL-12" value="" style="shape=flexArrow;endArrow=classic;html=1;rounded=0;" edge="1" parent="1">
          <mxGeometry width="50" height="50" relative="1" as="geometry">
            <mxPoint x="50" y="390" as="sourcePoint" />
            <mxPoint x="430" y="390" as="targetPoint" />
          </mxGeometry>
        </mxCell>
      </root>
    </mxGraphModel>
  </diagram>
</mxfile>
